# xmcd CD database file
#
# Track frame offsets:
#	150
#	31637
#	64037
#	80462
#	97412
#	121712
#	151262
#	184862
#	198662
#	260237
#	280712
#
# Disc length: 4071 seconds
#
# Revision: 0
# Processed by: cddbd v1.5.1PL0 Copyright (c) Steve Scherf et al.
# Submitted via: CDex 1.51
#
DISCID=950fe50b
DTITLE=Chadbourne, Eugene - End To Slavery
DYEAR=1996
DGENRE=Jazz
TTITLE0=Amber
TTITLE1=Naima
TTITLE2=Misty, I Know Your Misty 'Cus You Miss Me When I'm Gone
TTITLE3=Shreeve's Heaven
TTITLE4=Grey Skies Are Just Clouds Passing Over
TTITLE5=Oil Of Hate
TTITLE6=Imitation Of Astral Traveling
TTITLE7=That's That
TTITLE8=A Stone From Every River
TTITLE9=Symphony Of Weirdness
TTITLE10=End To Slavery
EXTD=YEAR: 1996
EXTT0=
EXTT1=
EXTT2=
EXTT3=
EXTT4=
EXTT5=
EXTT6=
EXTT7=
EXTT8=
EXTT9=
EXTT10=
PLAYORDER=
